<?xml version="1.0" encoding="UTF-8" standalone="no"?>
<!-- Created with Inkscape (http://www.inkscape.org/) -->

<svg
   xmlns:dc="http://purl.org/dc/elements/1.1/"
   xmlns:cc="http://creativecommons.org/ns#"
   xmlns:rdf="http://www.w3.org/1999/02/22-rdf-syntax-ns#"
   xmlns:svg="http://www.w3.org/2000/svg"
   xmlns="http://www.w3.org/2000/svg"
   xmlns:sodipodi="http://sodipodi.sourceforge.net/DTD/sodipodi-0.dtd"
   xmlns:inkscape="http://www.inkscape.org/namespaces/inkscape"
   width="297mm"
   height="210mm"
   viewBox="0 0 297 210"
   version="1.1"
   id="svg40"
   inkscape:version="0.92.3 (2405546, 2018-03-11)"
   sodipodi:docname="dibujo.svg">
  <defs
     id="defs34" />
  <sodipodi:namedview
     id="base"
     pagecolor="#ffffff"
     bordercolor="#666666"
     borderopacity="1.0"
     inkscape:pageopacity="0.0"
     inkscape:pageshadow="2"
     inkscape:zoom="0.49497475"
     inkscape:cx="400"
     inkscape:cy="341.23274"
     inkscape:document-units="mm"
     inkscape:current-layer="layer1"
     showgrid="false"
     inkscape:lockguides="false"
     inkscape:object-paths="false"
     inkscape:window-width="1920"
     inkscape:window-height="1018"
     inkscape:window-x="-8"
     inkscape:window-y="-8"
     inkscape:window-maximized="1" />
  <metadata
     id="metadata37">
    <rdf:RDF>
      <cc:Work
         rdf:about="">
        <dc:format>image/svg+xml</dc:format>
        <dc:type
           rdf:resource="http://purl.org/dc/dcmitype/StillImage" />
        <dc:title></dc:title>
      </cc:Work>
    </rdf:RDF>
  </metadata>
  <g
     inkscape:label="Capa 1"
     inkscape:groupmode="layer"
     id="layer1"
     transform="translate(0,-87)">
    <rect
       style="fill:#eeffaa;stroke-width:0.26458332"
       id="rect379"
       width="333.55237"
       height="228.7827"
       x="-3.7417734"
       y="82.115303" />
    <text
       xml:space="preserve"
       style="font-style:normal;font-weight:normal;font-size:42.77192688px;line-height:1.25;font-family:sans-serif;letter-spacing:0px;word-spacing:0px;fill:#000000;fill-opacity:1;stroke:none;stroke-width:1.06929815"
       x="274.64029"
       y="232.52278"
       id="text353"
       transform="scale(0.78974507,1.2662314)"><tspan
         sodipodi:role="line"
         x="274.64029"
         y="232.52278"
         style="stroke-width:1.06929815"
         id="tspan359">LISA</tspan></text>
    <circle
       style="fill:#e9c6af;stroke-width:0.26472437"
       id="path371"
       cx="132.94058"
       cy="196.52853"
       transform="matrix(0.99997094,0.00762395,0.03852902,0.99925748,0,0)"
       r="86.49733" />
    <g
       id="g375"
       transform="translate(-50.246671,77.508163)">
      <path
         inkscape:connector-curvature="0"
         d="m 147.00827,92.112255 c 3.96446,2.46925 7.95015,4.90511 12.0286,7.18187 0.82456,0.45566 1.65506,0.900745 2.47367,1.366995 2.44774,1.39416 2.3591,1.47616 4.88615,2.72063 2.55286,1.25719 5.1741,2.32155 7.84201,3.3022 5.95919,1.9524 12.26731,2.17319 18.47984,2.3837 1.11641,0.0211 4.46581,0.0719 3.34923,0.0633 -2.15339,-0.0166 -4.3351,0.26357 -6.45979,-0.0873 -1.21522,-0.20068 2.45507,-0.21172 3.67622,-0.37237 3.53114,-0.46453 6.68814,-1.23731 10.09455,-2.23081 3.77849,-1.28891 7.47415,-2.94185 10.72127,-5.29397 1.61176,-1.167525 1.95504,-1.591425 3.31749,-2.920765 1.23955,-1.58481 2.82015,-3.5184 2.70866,-5.68032 -0.0134,-0.2593 -0.0973,-0.51011 -0.1459,-0.76516 -0.1566,-0.15111 -0.28775,-0.334102 -0.46981,-0.453308 -1.59117,-1.041825 -4.08903,-1.41058 -5.93004,-1.670879 -0.53886,-0.04582 -1.07701,-0.100868 -1.61657,-0.137449 -0.58984,-0.03999 -1.18048,-0.06802 -1.77118,-0.09223 -0.63056,-0.02584 -2.52347,-0.05521 -1.89238,-0.05791 2.64941,-0.01132 5.30608,-0.16424 7.94824,0.03204 0.87904,0.0653 -1.75622,0.184598 -2.61928,0.363837 -1.01565,0.210928 -2.00413,0.536299 -3.00619,0.804448 -6.42046,2.106251 -11.98518,6.010041 -16.61994,10.885886 -1.10324,1.16062 -2.10458,2.41402 -3.15687,3.62103 -6.62315,8.47642 -11.94362,17.84741 -17.63371,26.94756 -4.17014,6.95263 -9.09415,13.6606 -15.62038,18.59386 -1.01748,0.76912 -2.11637,1.42416 -3.17456,2.13624 -3.93303,2.28992 -8.1108,4.64508 -12.71738,5.1279 -3.76526,-0.12702 -7.54368,-0.0417 -11.29576,-0.38106 -0.32033,-0.029 -0.48042,-0.43616 -0.66348,-0.70063 -0.5885,-0.85025 -0.66415,-2.01178 -0.091,-2.90803 0.23118,-0.3615 0.58917,-0.62402 0.88376,-0.93603 0.4316,-0.23117 0.83872,-0.51544 1.29479,-0.69353 1.21883,-0.47594 2.7598,-0.71654 4.03234,-0.87687 2.54768,-0.32097 5.12113,-0.40129 7.68392,-0.50261 6.27505,-0.18476 12.44959,-0.23915 18.59624,0.91229 2.37381,0.44468 4.66204,1.12837 6.95962,1.85639 3.60021,1.24136 7.29774,1.92205 11.07905,2.26021 3.63604,0.32791 19.74804,0.32311 3.0829,0.21299 0.97652,-0.0806 1.95305,-0.16114 2.92958,-0.24172 0,0 10.05377,1.49383 10.05377,1.49383 v 0 c -0.97296,0.10667 -1.94591,0.21333 -2.91886,0.32 -7.78186,0.0432 -15.61349,0.31412 -23.38752,-0.26844 -3.77936,-0.42315 -7.46502,-1.22714 -11.06532,-2.47241 -3.1434,-0.96262 -6.2731,-1.71859 -9.54549,-2.10604 -0.95815,-0.11344 -3.8423,-0.18422 -2.88159,-0.27343 2.39348,-0.22227 4.80678,-0.0857 7.21018,-0.12854 -3.64671,0.1132 -7.91773,0.0844 -11.45358,1.01412 -0.41534,0.1092 -0.81055,0.28415 -1.21583,0.42623 -0.26894,0.14481 -0.57722,0.23299 -0.80682,0.43444 -0.16127,0.1415 -0.25676,0.35268 -0.32292,0.55677 -0.22294,0.68766 0.46661,1.0532 0.97952,1.2604 -3.15961,0.0432 -6.31922,0.0864 -9.47884,0.12964 0.42538,0.0225 0.85133,0.0991 1.27613,0.0676 1.08435,-0.0804 2.74646,-0.54201 3.72442,-0.86335 2.82949,-0.92974 5.53225,-2.21531 8.10177,-3.71439 1.07844,-0.67391 2.19852,-1.28537 3.23533,-2.02173 6.64528,-4.71959 11.67319,-11.33162 15.81943,-18.2572 5.71598,-9.11134 11.0506,-18.48893 17.52872,-27.09879 1.03688,-1.23721 2.0223,-2.51944 3.11064,-3.71164 4.55461,-4.989215 10.05096,-9.059285 16.41593,-11.40203 1.18711,-0.374814 4.14248,-1.415415 5.51432,-1.465916 5.87789,-0.216381 11.93091,-0.290749 17.81822,0.391398 1.94788,0.365085 4.80355,0.837844 6.12811,2.500557 0.21714,0.272571 0.319,0.619691 0.4785,0.929536 0.0394,0.33145 0.11327,0.6606 0.11835,0.99435 0.0374,2.46017 -1.48153,4.58061 -2.92626,6.42794 -1.35705,1.335875 -1.86811,1.921885 -3.44807,3.102785 -3.28188,2.45295 -7.03964,4.1883 -10.87443,5.57649 -1.08512,0.33956 -2.15706,0.72455 -3.25537,1.01868 -1.88702,0.50535 -4.99801,1.09372 -6.91737,1.38405 -1.21445,0.1837 -2.42783,0.42408 -3.65543,0.4643 -4.48237,0.14686 -8.9692,0.092 -13.45397,0.0963 -1.1146,10e-4 -2.22855,-0.0535 -3.34282,-0.0802 -6.276,-0.2528 -12.64407,-0.55698 -18.61649,-2.69602 -2.67524,-1.03667 -5.31159,-2.12741 -7.87072,-3.43182 -2.25948,-1.15169 -2.68328,-1.49154 -4.88226,-2.73523 -0.82425,-0.46618 -1.65817,-0.91507 -2.48725,-1.3726 -4.15726,-2.345705 -8.21453,-4.862255 -12.39116,-7.174085 0,0 10.50112,-1.08586 10.50112,-1.08586 z"
         id="path341"
         style="fill:#000000;stroke-width:0.26458332" />
      <path
         inkscape:connector-curvature="0"
         d="m 130.41307,160.3877 c 4.34645,-2.97958 9.28354,-4.98602 14.08306,-7.10616 1.35086,-0.60631 2.69679,-1.22375 4.05259,-1.81895 4.37049,-1.91867 8.71814,-3.81562 12.94945,-6.03432 3.62071,-1.89852 4.19095,-2.29937 7.61126,-4.33926 4.01342,-2.44421 7.84331,-5.20887 11.22738,-8.48035 1.93734,-1.87288 2.40139,-2.51073 4.14404,-4.54554 2.75336,-3.72545 5.27857,-7.65306 7.5313,-11.70384 1.41193,-2.53887 2.29882,-4.46324 3.56688,-7.07934 2.84386,-6.07001 5.20371,-12.327145 6.92078,-18.804625 0.65894,-2.964219 1.33199,-6.004667 1.20281,-9.060408 -0.0295,-0.121541 -0.1396,-0.88725 -0.39658,-0.985186 -0.0975,-0.03715 -0.3642,0.169848 -0.25996,0.174296 3.37312,0.143943 6.75834,0.001 10.12558,0.246704 0.22029,0.01607 -0.35883,0.272216 -0.47977,0.45704 -0.19453,0.297309 -0.30078,0.643801 -0.45117,0.965702 -1.14162,3.76642 -1.21386,7.748525 -0.99004,11.645192 0.37025,5.03787 2.44209,9.618315 4.34257,14.215135 1.82382,3.64671 3.95857,7.12517 5.73137,10.79937 1.49024,3.01384 2.05732,6.29313 2.48852,9.59268 0.13776,1.46296 0.31145,2.2774 0.0478,3.75725 -0.6556,3.67935 -2.7683,6.49321 -4.98335,9.36387 -4.65606,5.34762 -10.73716,9.25691 -17.09572,12.29961 -1.42081,0.67988 -2.88822,1.25775 -4.33233,1.88662 -5.7955,2.37551 -11.85929,3.94435 -18.04501,4.85566 -5.19898,0.5794 -2.98316,0.39229 -13.27916,0.16891 -1.35942,-0.0295 -2.65361,-0.82702 -3.60082,-1.7204 -1.09437,-1.10716 -1.38088,-2.56628 -1.50756,-4.05916 0.0179,-3.1052 1.59773,-4.45553 3.94921,-6.15281 3.84633,-2.66412 8.42786,-2.9352 12.94635,-3.21993 4.732,-0.004 12.32687,-0.30423 17.89913,0.25594 6.34873,0.63822 12.62639,1.95024 18.84305,3.34119 8.36627,1.85807 16.44709,4.74989 24.76651,6.78489 5.00043,1.17971 10.13436,1.42856 15.24702,1.61952 0,0 -10.02617,1.54527 -10.02617,1.54527 v 0 c -5.11202,-0.23464 -10.24271,-0.55051 -15.2209,-1.83384 -8.19079,-2.13913 -16.1745,-5.02578 -24.46452,-6.79312 -6.26283,-1.33769 -12.5675,-2.63473 -18.9623,-3.16466 -1.41983,-0.11766 -5.6838,-0.0314 -4.26933,-0.20176 2.04835,-0.24668 4.12626,-0.0197 6.18938,-0.0295 -4.32365,0.23547 -8.79671,0.34187 -12.59323,2.68783 -1.9811,1.37296 -3.80761,2.34327 -3.74952,5.05326 0.15379,1.25796 0.40656,2.41018 1.469,3.22472 0.71863,0.47007 1.40545,0.7742 2.26346,0.92939 0.37644,0.0681 1.52237,0.12198 1.13997,0.13242 -12.78825,0.34903 -11.26425,0.26663 -7.27079,-0.0511 6.33166,-0.74485 12.54385,-2.20852 18.49784,-4.51984 1.4476,-0.60411 2.91986,-1.15221 4.34279,-1.81234 6.2385,-2.89418 12.17223,-6.71518 16.74677,-11.89507 2.05158,-2.63205 4.13566,-5.38406 4.74063,-8.7642 0.25808,-1.44201 0.0825,-2.10614 -0.0711,-3.54614 -0.46422,-3.18534 -1.01222,-6.36307 -2.47692,-9.27 -1.76284,-3.67844 -3.86038,-7.18021 -5.6126,-10.86354 -1.9321,-4.70243 -3.92844,-9.417845 -4.33756,-14.552455 -0.27076,-4.048597 -0.21941,-8.147066 0.76102,-12.109731 0.13621,-0.390648 0.25444,-0.78804 0.40864,-1.171943 0.13491,-0.335895 0.0977,-0.946735 0.45763,-0.98479 6.67655,-0.705827 10.91376,-3.43823 11.59411,1.682043 -0.0236,3.168888 -0.70602,6.300499 -1.51213,9.351699 -1.85899,6.519342 -4.29906,12.835507 -7.17081,18.977797 -1.02389,2.13915 -2.39459,5.07216 -3.52635,7.16215 -2.22274,4.10469 -4.74241,8.06711 -7.42041,11.88629 -1.7322,2.06073 -2.24984,2.77668 -4.18493,4.67218 -3.427,3.35688 -7.31869,6.19093 -11.41832,8.66728 -2.95411,1.74734 -4.61919,2.77793 -7.69125,4.40064 -4.21849,2.22827 -8.56483,4.13872 -12.91835,6.07832 -1.33993,0.59698 -2.66914,1.21772 -4.0037,1.82658 -4.5665,2.09494 -9.23308,4.06696 -13.41941,6.87832 0,0 -10.54578,-0.91149 -10.54578,-0.91149 z"
         id="path343"
         style="fill:#000000;stroke-width:0.26458332" />
    </g>
  </g>
</svg>
